# xmcd CD database file
#
# Track frame offsets:
#	150
#	2999
#	21354
#	38003
#	50625
#	68220
#	69769
#	85046
#	98856
#	111958
#	130130
#	144122
#	162774
#	164848
#	182855
#	196957
#
# Disc length: 2928 seconds
#
# Revision: 0
# Processed by: cddbd v1.5PL3 Copyright (c) Steve Scherf et al.
# Submitted via: CDex 1.50beta8
#
DISCID=d70b6e10
DTITLE=ブリーフ&トランクス - ブリトラの反乱
DYEAR=2000
DGENRE=
TTITLE0=シュプレヒコールA
TTITLE1=ペチャパイ
TTITLE2=プチプチ
TTITLE3=ダフ屋
TTITLE4=ろうそく
TTITLE5=シュプレヒコールB
TTITLE6=権力ハニー
TTITLE7=ブルマン
TTITLE8=チョベリバ
TTITLE9=タンポポ
TTITLE10=どーして!
TTITLE11=定食屋
TTITLE12=シュプレヒコールC
TTITLE13=一週間
TTITLE14=原稿用紙でラブレター
TTITLE15=さなだ虫2000スーパー
EXTD=YEAR: 2000
EXTT0=
EXTT1=
EXTT2=
EXTT3=
EXTT4=
EXTT5=
EXTT6=
EXTT7=
EXTT8=
EXTT9=
EXTT10=
EXTT11=
EXTT12=
EXTT13=
EXTT14=
EXTT15=
PLAYORDER=
